<?xml version="1.0"?>
<svg xmlns="http://www.w3.org/2000/svg" id="Layer_1" enable-background="new 0 0 512 512" height="512px" viewBox="0 0 512 512" width="512px" class=""><g><g><g><path clip-rule="evenodd" d="m15 15h482v482h-482z" fill="#7dd5f4" fill-rule="evenodd" data-original="#7DD5F4" class="" data-old_color="#7dd5f4" style="fill:#FFFFFF"/></g><path clip-rule="evenodd" d="m256 15h241v482h-241z" fill="#4793ff" fill-rule="evenodd" data-original="#4793FF" class="" data-old_color="#4793ff" style="fill:#FFFFFF"/><g><path d="m497 512h-482c-8.284 0-15-6.716-15-15v-482c0-8.284 6.716-15 15-15h482c8.284 0 15 6.716 15 15v482c0 8.284-6.716 15-15 15zm-467-30h452v-452h-452z" fill="#fff4f4" data-original="#FFF4F4" class="active-path" data-old_color="#fff4f4" style="fill:#FF0000"/></g><g><path d="m365.016 422h-218.032c-8.284 0-15-6.716-15-15v-302c0-8.284 6.716-15 15-15h60c8.284 0 15 6.716 15 15v227h143.031c8.284 0 15 6.716 15 15v60c.001 8.284-6.715 15-14.999 15z" fill="#fff4f4" data-original="#FFF4F4" class="active-path" data-old_color="#fff4f4" style="fill:#FF0000"/></g><g fill="#f6efea"><path d="m365.016 332h-109.016v90h109.016c8.284 0 15-6.716 15-15v-60c0-8.285-6.716-15-15-15z" data-original="#F6EFEA" class="" style="fill:#F40000" data-old_color="#F6EFEA"/><path d="m497 0h-241v30h226v452h-226v30h241c8.284 0 15-6.716 15-15v-482c0-8.284-6.716-15-15-15z" data-original="#F6EFEA" class="" style="fill:#F40000" data-old_color="#F6EFEA"/></g></g></g> </svg>
